<svg xmlns="http://www.w3.org/2000/svg" id="svg" width="346" height="343" viewBox="26 27 346 343"><g id="svgg" fill-rule="evenodd" stroke="none"><path id="path0" fill="#1e74dd" d="M122.266 139.818c-3.808 1.163-6.298 3.713-7.015 7.183-.583 2.822.372 9.618 6.652 47.335 6.686 40.157 6.434 39.083 10.137 43.281l1.653 1.874-1.243 5.938a16040 16040 0 0 1-6.753 32.018c-1.764 8.291-.919 9.662 5.95 9.662 5.929 0 5.463.823 8.945-15.82a8797 8797 0 0 1 4.274-20.312l1.494-7.032 25.206-.1 25.206-.101.222 1.273c.123.699 1.552 7.682 3.177 15.515s2.954 14.446 2.954 14.693c0 .511.877.375-17.578 2.727-36.139 4.605-32.813 3.952-32.813 6.443 0 2.958-5.046 2.715 56.181 2.712 58.52-.002 57.119.045 58.833-1.992 1.277-1.517 1.281-2.658.044-10.934-.527-3.524-1.929-12.911-3.115-20.861a30216 30216 0 0 0-3.538-23.632 3200 3200 0 0 1-2.367-16.016c-.543-3.76-1.082-7.319-1.199-7.91l-.213-1.074h10.011c13.307 0 13.493-.101 13.483-7.305-.01-6.204-1.129-7.403-6.762-7.241l-3.584.103-8.008 7.981c-17.26 17.201-17.002 17.187-32.124 1.78l-9.974-10.162-26.9.002c-33.774.003-31.783-.471-31.783 7.558 0 7.98-3.541 7.284 37.015 7.284 26.23 0 33.677.106 34.176.488.498.382 1.286 4.963 3.612 20.996l4.702 32.398c.949 6.54 1.675 11.943 1.612 12.006-.401.401-26.43 3.464-26.43 3.11 0-.078-.8-4.077-1.779-8.887-4.792-23.559-4.574-21.041-1.882-21.76 11.396-3.041 12.355-17.802 1.482-22.817l-1.922-.886-31.809-.195-31.808-.196-2.678-13.672c-8.89-45.386-11.713-58.969-12.631-60.779-1.978-3.904-6.883-5.967-11.113-4.676"/><path id="path1" fill="#1fbd6d" d="M237.855 97.848c-15.278 2.893-27.723 14.178-32.226 29.221-5.816 19.433 3.244 38.745 31.513 67.169 4.22 4.243 7.944 7.715 8.276 7.715 1.344 0 15.387-14.132 22.319-22.461 17.592-21.136 22.623-36.415 17.553-53.31-5.915-19.71-26.873-32.228-47.435-28.334m30.381 22.299c4.474 2.831 4.25 6.328-.769 12.013-3.756 4.254-6.264 7.144-16.295 18.776-9.986 11.579-9.642 11.592-21.925-.809-9.864-9.959-10.534-11.451-6.963-15.518 3.716-4.232 6.982-3.593 13.521 2.646l4.36 4.159 11.601-10.92c6.38-6.006 11.976-10.995 12.436-11.087 1.178-.235 3.029.105 4.034.74"/><path id="path2" fill="#edf3f4" d="M143.945 72.327c-8.808.188-16.367.511-16.797.72s-3.242.443-6.25.523c-3.352.09-6.526.405-8.203.815-1.504.368-3.217.764-3.808.881s-1.074.369-1.074.56c0 .19-.43.346-.954.346s-1.062.176-1.195.391c-.133.214-.539.391-.902.392s-1.525.44-2.582.976c-1.057.537-2.244.975-2.637.975s-.715.141-.715.312-.613.534-1.363.805c-.75.272-1.589.719-1.864.994-.276.276-1.288.995-2.25 1.598-.962.602-1.837 1.202-1.945 1.332-.107.131-.898.759-1.758 1.397-1.706 1.267-2.255 1.799-4.882 4.738-2.968 3.319-3.994 4.915-6.878 10.699-2.594 5.2-4.45 10.716-4.45 13.221 0 .652-.176 1.295-.391 1.428-.215.132-.391 1.362-.391 2.732s-.195 2.985-.433 3.59c-.606 1.535-.922 142.524-.338 150.514.228 3.115.501 6.982.606 8.593.106 1.612.343 3.282.528 3.711.185.43.649 2.24 1.031 4.023.383 1.783.841 3.332 1.018 3.441.178.11.323.472.323.805 0 .784 3.525 7.942 3.911 7.942.162 0 .398.308.524.684.284.846 1.003 1.953 1.952 3.006.398.441 1.189 1.418 1.758 2.17 1.438 1.9 4.187 4.633 6.503 6.463 1.074.85 2.012 1.676 2.083 1.837s.294.293.493.293 1.195.583 2.213 1.294 2.115 1.411 2.438 1.554 1.289.697 2.148 1.23c3.168 1.964 6.975 3.344 9.228 3.344.592 0 1.186.176 1.319.391s.899.391 1.703.391c.803 0 1.628.159 1.832.354s1.25.448 2.324.562c1.075.114 3.887.419 6.25.678 5.327.583 148.78.494 155.274-.097 7.858-.715 8.607-.813 8.818-1.154.117-.189.732-.343 1.366-.343.635-.001 1.46-.167 1.833-.37.373-.204 1.645-.656 2.827-1.006 1.181-.349 2.851-.958 3.71-1.352.86-.394 2.407-1.04 3.439-1.436s2.178-.983 2.545-1.305c.368-.323 1.352-.963 2.188-1.423 3.021-1.663 11.164-8.671 11.164-9.607 0-.193.614-.998 1.364-1.789.75-.792 1.365-1.583 1.367-1.759s.501-1.055 1.109-1.953c1.343-1.985 3.841-7.089 4.193-8.571.142-.592.413-1.174.604-1.292s.348-.721.348-1.341c0-.619.176-1.234.39-1.367s.391-.729.391-1.325.132-1.214.293-1.374c.741-.734 1.373-9.1 1.522-20.144.088-6.548.287-12.032.442-12.186s.192-2.267.081-4.696-.08-6.085.069-8.126c.341-4.679.133-117.268-.223-120.703-.145-1.397-.418-2.891-.607-3.321-.19-.43-.448-1.572-.575-2.539-.321-2.45-1.019-5.535-1.434-6.342a3.8 3.8 0 0 1-.349-1.442c0-.42-.176-.872-.391-1.005s-.39-.498-.39-.811c0-.832-2.028-5.244-2.41-5.244-.179 0-.325-.341-.325-.757 0-2.657-9.479-13.372-14.051-15.881-.745-.41-1.659-1.012-2.03-1.34-1.137-1.005-8.67-4.686-9.579-4.682-.471.002-.965-.172-1.098-.386-.132-.215-.66-.391-1.172-.391s-1.039-.176-1.171-.391-.73-.39-1.326-.39-1.212-.129-1.37-.287c-.817-.817-7.741-1.795-17.617-2.489-7.161-.503-106.671-.728-127.344-.288m108.836 25.121c24.92 4.361 40.487 29.705 32.764 53.339-3.112 9.522-10.695 21.331-21.369 33.277-5.166 5.782-17.859 18.28-18.564 18.28-1.228 0-16.47-15.532-23.21-23.651-11.258-13.561-17.349-25.491-18.507-36.247-2.894-26.879 21.917-49.717 48.886-44.998m10.975 22.491c-.49.197-2.6 1.997-4.687 4.001-10.352 9.937-18.524 17.466-18.956 17.466-.264 0-2.059-1.594-3.988-3.543-6.894-6.964-12.172-7.34-14.791-1.054-1.429 3.431-1.231 3.748 8.283 13.256 12.43 12.421 11.321 12.515 23.721-2.015 1.924-2.254 6.501-7.528 10.17-11.719 3.67-4.192 6.878-8.005 7.129-8.474 2.137-3.992-2.725-9.586-6.881-7.918m-134.981 19.929c4.285 1.629 5.16 3.528 7.925 17.199 2.53 12.513 12.128 61.151 12.128 61.461 0 .105 14.198.242 31.552.304l31.551.113 2.531 1.254c11.019 5.459 9.994 19.49-1.689 23.104l-2.125.658 1.866 9.172c3.447 16.938 4.158 20.31 4.319 20.462.087.082 2.62-.172 5.628-.565 3.008-.394 8.633-1.1 12.5-1.569s7.18-.989 7.363-1.156c.182-.167-.298-4.672-1.067-10.012-3.622-25.147-7.281-50.193-7.682-52.578l-.443-2.637h-33.63c-41.102 0-38.176.604-38.172-7.871.003-7.846-2.071-7.363 31.607-7.363h27.742l9.819 9.944c10.832 10.97 11.514 11.464 15.222 11.025 3.953-.468 9.265-4.694 19.68-15.656l5.048-5.313 3.546.001c5.876.003 7.256 1.467 7.255 7.701-.001 7.119-.755 7.532-13.762 7.532-6.366 0-9.674.137-9.674.402-.001.349 6.885 46.596 9.565 64.247 2.177 14.341 2.147 14.993-.776 16.663-1.479.844-111.254 1.484-112.824.658-1.154-.607-1.421-1.089-1.428-2.575-.01-2.042.941-2.63 5.098-3.153 2.027-.255 9.749-1.242 17.161-2.193a6656 6656 0 0 1 20.118-2.551c3.652-.452 7.014-.902 7.472-.999l.832-.178-1.079-5.18a4532 4532 0 0 1-2.908-14.164c-2.568-12.613-2.286-11.767-4.026-12.054-2.197-.364-48.066-.3-48.293.066-.228.369-1.871 8.019-6.895 32.105-2.361 11.318-2.118 10.986-8.114 11.022-8.458.049-8.409.386-3.39-23.339 5.824-27.534 5.259-24.29 4.373-25.085-3.127-2.806-4.62-6.547-6.118-15.332-1.512-8.874-7.565-45.253-8.579-51.563-.431-2.686-1.254-7.783-1.828-11.328-1.42-8.77-1.468-13.62-.158-16.16 2.133-4.137 8.154-6.27 12.759-4.519"/><path id="path3" fill="#96c9e3" d="M203.641 138.281c0 1.397.071 1.968.157 1.27s.087-1.841 0-2.539c-.086-.699-.157-.127-.157 1.269m-83.817 2.177c-1.514.821-1.343 1.105.196.323 1.472-.749 1.733-.943 1.237-.922-.197.009-.842.278-1.433.599m13.651 4.264c.357.749.719 1.293.804 1.208.178-.179-1.008-2.571-1.275-2.571-.098 0 .113.613.471 1.363m96.994 6.645c.729.752 1.413 1.367 1.52 1.367.108 0-.401-.615-1.13-1.367s-1.413-1.367-1.52-1.367.401.615 1.13 1.367m-10.122 38.574c.091.054.779.625 1.53 1.27l1.365 1.172-1.147-1.27c-.631-.698-1.32-1.269-1.53-1.269-.211 0-.309.044-.218.097m47.61 2.539-2.527 2.637 2.539-2.422c2.395-2.285 2.661-2.43 4.687-2.564l2.149-.143-2.16-.072-2.16-.072zm-33.973-.878c.729.752 1.413 1.367 1.521 1.367s-.401-.615-1.13-1.367-1.413-1.368-1.52-1.368c-.108 0 .401.616 1.129 1.368m-72.517 5.078c-.001 1.933.065 2.774.147 1.867s.082-2.489.002-3.516c-.081-1.027-.148-.285-.149 1.649m119.535.781c.001 2.148.067 2.977.146 1.842s.078-2.893-.002-3.906-.145-.084-.144 2.064m-40.768.391c1.167 1.181 2.21 2.148 2.317 2.148s-.759-.967-1.926-2.148-2.21-2.149-2.317-2.149.759.967 1.926 2.149m-5.842 6.152c3.561 3.599 6.728 6.538 7.037 6.531.364-.008.287-.162-.218-.437-.43-.234-3.597-3.173-7.038-6.531l-6.256-6.106zm45.583-1.169-.689 1.267.786-.923c.67-.784 1.028-1.623.69-1.614-.054.001-.408.573-.787 1.27m-24.918 2.536-1.346 1.465 1.465-1.346c1.363-1.253 1.644-1.584 1.346-1.584-.065 0-.725.659-1.465 1.465m-72.899-.391c9.201.059 24.142.059 33.203 0s1.534-.106-16.728-.106-25.675.048-16.475.106m75.27.391c.004.48.097.54.312.202.225-.355 2.859-.51 10.052-.593l9.747-.111-10.059-.091c-9.355-.084-10.058-.043-10.052.593m-108.865 12.793c.08.774.369.781 30.739.785l30.659.004-30.538-.104c-28.655-.097-30.551-.146-30.74-.785-.155-.525-.182-.503-.12.1m73.424 13.281c.003 1.075.079 1.468.168.874s.088-1.473-.005-1.953c-.093-.481-.166.005-.163 1.079m-90.737 5.787c0 .067.571.638 1.27 1.269l1.269 1.147-1.147-1.269c-1.07-1.183-1.392-1.449-1.392-1.147m64.063 6.806c.537.1 1.105.383 1.263.63.184.289.289.205.293-.234.005-.523-.293-.671-1.264-.631-1.074.045-1.119.081-.292.235m41.113 27.325c.376.098.991.098 1.367 0s.068-.179-.684-.179-1.059.081-.683.179m-6.25.781c.376.099.991.099 1.367 0 .376-.098.068-.178-.684-.178s-1.059.08-.683.178m-12.11 1.563a3.2 3.2 0 0 0 1.368 0c.376-.098.068-.179-.684-.179s-1.06.081-.684.179m-49.218 6.25c.376.098.991.098 1.367 0s.068-.179-.684-.179-1.059.081-.683.179m100.001 1.879c.004.859.084 1.165.177.679.094-.486.09-1.189-.008-1.563-.097-.373-.174.025-.169.884m-116.407 2.734c.005.86.085 1.165.178.679s.09-1.189-.008-1.562c-.098-.374-.174.024-.17.883m-16.309 1.785c-.645.412-.972.751-.727.752s.86-.343 1.367-.766c1.161-.967.882-.961-.64.014m26.491 1.047c4.687.062 12.246.062 16.797 0 4.551-.063.716-.114-8.523-.114-9.238.001-12.961.052-8.274.114m33.191-.004c1.243.078 3.177.078 4.297-.001s.103-.142-2.26-.142c-2.364.001-3.28.066-2.037.143m66.201-.012c.486.093 1.189.09 1.563-.008s-.024-.174-.884-.17c-.859.004-1.165.084-.679.178"/><path id="path4" fill="#7ccfa2" d="M244.043 97.161c.913.082 2.407.082 3.32 0s.166-.15-1.66-.15-2.573.068-1.66.15m-26.679 10.749-1.544 1.66 1.66-1.544c1.544-1.436 1.84-1.776 1.545-1.776-.064 0-.811.747-1.661 1.66m57.831 1.465c1.276 1.289 2.407 2.344 2.515 2.344.107 0-.848-1.055-2.124-2.344s-2.407-2.344-2.515-2.344c-.107 0 .849 1.055 2.124 2.344m-61.154 1.855-1.346 1.465 1.465-1.346c1.364-1.253 1.645-1.583 1.346-1.583-.065 0-.724.659-1.465 1.464m-2.322 2.833c-.459.644-.747 1.171-.639 1.171s.57-.527 1.029-1.171c.459-.645.747-1.172.64-1.172-.108 0-.571.527-1.03 1.172m56.25 5.981c0 .067.571.639 1.269 1.27l1.27 1.147-1.147-1.27c-1.07-1.183-1.392-1.449-1.392-1.147m-9.387 4.077-2.527 2.637 2.636-2.528c1.451-1.39 2.637-2.577 2.637-2.637 0-.287-.398.079-2.746 2.528m12.61 1.465c.005.859.085 1.165.178.679s.09-1.189-.008-1.563-.174.025-.17.884m-19.25 4.785-2.528 2.637 2.637-2.528c1.45-1.39 2.637-2.577 2.637-2.637 0-.287-.398.079-2.746 2.528m-47.945 3.613c0 .752.08 1.06.179.684a3.2 3.2 0 0 0 0-1.367c-.099-.376-.179-.069-.179.683m18.439.489-1.147 1.269 1.27-1.147c.698-.631 1.269-1.202 1.269-1.27 0-.301-.322-.036-1.392 1.148m22.669 2.343-2.332 2.442 2.442-2.332c1.343-1.282 2.441-2.381 2.441-2.441 0-.289-.385.064-2.551 2.331m-8.972 1.075c1.492 1.504 2.801 2.734 2.909 2.734s-1.026-1.23-2.519-2.734c-1.492-1.504-2.801-2.735-2.908-2.735-.108 0 1.025 1.231 2.518 2.735m51.115.586c-.001 1.933.065 2.773.147 1.867s.083-2.489.002-3.516-.148-.285-.149 1.649m-62.053 7.617c2.141 2.148 3.98 3.906 4.087 3.906.108 0-1.556-1.758-3.696-3.906s-3.98-3.906-4.087-3.906 1.556 1.757 3.696 3.906m23.413 7.519-1.147 1.27 1.269-1.147c.699-.632 1.27-1.203 1.27-1.27 0-.302-.322-.036-1.392 1.147m-15.014.806c0 .067.571.639 1.269 1.27l1.27 1.147-1.147-1.27c-1.07-1.183-1.392-1.449-1.392-1.147M225 181.763c0 .067.571.638 1.27 1.269l1.269 1.148-1.147-1.27c-1.07-1.183-1.392-1.449-1.392-1.147m38.452 2.71-1.147 1.269 1.269-1.147c.698-.631 1.27-1.202 1.27-1.27 0-.301-.323-.036-1.392 1.148m-33.569 2.636c.839.86 1.613 1.563 1.721 1.563.107 0-.491-.703-1.331-1.563-.839-.859-1.613-1.562-1.721-1.562-.107 0 .492.703 1.331 1.562m28.32 2.93c-1.6 1.611-2.822 2.93-2.715 2.93s1.505-1.319 3.106-2.93 2.822-2.93 2.715-2.93-1.505 1.319-3.106 2.93m-7.044 7.129-2.136 2.246 2.247-2.135c1.235-1.174 2.246-2.185 2.246-2.246 0-.29-.374.048-2.357 2.135m-7.238 3.906c1.357 1.502 1.802 1.565 2.796.391.743-.878.743-.878-.068-.195-1.072.902-1.279.872-2.682-.391l-1.194-1.074z"/></g></svg>