<svg id="svg" version="1.1" xmlns="http://www.w3.org/2000/svg" xmlns:xlink="http://www.w3.org/1999/xlink" width="400" height="400" viewBox="0, 0, 400,400"><g id="svgg"><path id="path0" d="M122.266 139.818 C 118.458 140.981,115.968 143.531,115.251 147.001 C 114.668 149.823,115.623 156.619,121.903 194.336 C 128.589 234.493,128.337 233.419,132.040 237.617 L 133.693 239.491 132.450 245.429 C 130.693 253.814,127.146 270.630,125.697 277.447 C 123.933 285.738,124.778 287.109,131.647 287.109 C 137.576 287.109,137.110 287.932,140.592 271.289 C 142.121 263.984,144.044 254.844,144.866 250.977 L 146.360 243.945 171.566 243.845 L 196.772 243.744 196.994 245.017 C 197.117 245.716,198.546 252.699,200.171 260.532 C 201.796 268.366,203.125 274.978,203.125 275.225 C 203.125 275.736,204.002 275.600,185.547 277.952 C 149.408 282.557,152.734 281.904,152.734 284.395 C 152.734 287.353,147.688 287.110,208.915 287.107 C 267.435 287.105,266.034 287.152,267.748 285.115 C 269.025 283.598,269.029 282.457,267.792 274.181 C 267.265 270.657,265.863 261.270,264.677 253.320 C 263.490 245.371,261.898 234.736,261.139 229.688 C 260.379 224.639,259.314 217.432,258.772 213.672 C 258.229 209.912,257.690 206.353,257.573 205.762 L 257.360 204.688 267.371 204.688 C 280.678 204.688,280.864 204.587,280.854 197.383 C 280.844 191.179,279.725 189.980,274.092 190.142 L 270.508 190.245 262.500 198.226 C 245.240 215.427,245.498 215.413,230.376 200.006 L 220.402 189.844 193.502 189.846 C 159.728 189.849,161.719 189.375,161.719 197.404 C 161.719 205.384,158.178 204.688,198.734 204.688 C 224.964 204.688,232.411 204.794,232.910 205.176 C 233.408 205.558,234.196 210.139,236.522 226.172 C 238.158 237.451,240.274 252.030,241.224 258.570 C 242.173 265.110,242.899 270.513,242.836 270.576 C 242.435 270.977,216.406 274.040,216.406 273.686 C 216.406 273.608,215.606 269.609,214.627 264.799 C 209.835 241.240,210.053 243.758,212.745 243.039 C 224.141 239.998,225.100 225.237,214.227 220.222 L 212.305 219.336 180.496 219.141 L 148.688 218.945 146.010 205.273 C 137.120 159.887,134.297 146.304,133.379 144.494 C 131.401 140.590,126.496 138.527,122.266 139.818 " stroke="none" fill="#1e74dd" fill-rule="evenodd"></path><path id="path1" d="M237.855 97.848 C 222.577 100.741,210.132 112.026,205.629 127.069 C 199.813 146.502,208.873 165.814,237.142 194.238 C 241.362 198.481,245.086 201.953,245.418 201.953 C 246.762 201.953,260.805 187.821,267.737 179.492 C 285.329 158.356,290.360 143.077,285.290 126.182 C 279.375 106.472,258.417 93.954,237.855 97.848 M268.236 120.147 C 272.710 122.978,272.486 126.475,267.467 132.160 C 263.711 136.414,261.203 139.304,251.172 150.936 C 241.186 162.515,241.530 162.528,229.247 150.127 C 219.383 140.168,218.713 138.676,222.284 134.609 C 226.000 130.377,229.266 131.016,235.805 137.255 L 240.165 141.414 251.766 130.494 C 258.146 124.488,263.742 119.499,264.202 119.407 C 265.380 119.172,267.231 119.512,268.236 120.147 " stroke="none" fill="#1fbd6d" fill-rule="evenodd"></path><path id="path2" d="M143.945 72.327 C 135.137 72.515,127.578 72.838,127.148 73.047 C 126.719 73.255,123.906 73.490,120.898 73.570 C 117.546 73.660,114.372 73.975,112.695 74.385 C 111.191 74.753,109.478 75.149,108.887 75.266 C 108.296 75.383,107.813 75.635,107.813 75.826 C 107.813 76.016,107.383 76.172,106.859 76.172 C 106.335 76.172,105.797 76.348,105.664 76.563 C 105.531 76.777,105.125 76.954,104.762 76.955 C 104.399 76.956,103.237 77.395,102.180 77.931 C 101.123 78.468,99.936 78.906,99.543 78.906 C 99.150 78.906,98.828 79.047,98.828 79.218 C 98.828 79.390,98.215 79.752,97.465 80.023 C 96.715 80.295,95.876 80.742,95.601 81.017 C 95.325 81.293,94.313 82.012,93.351 82.615 C 92.389 83.217,91.514 83.817,91.406 83.947 C 91.299 84.078,90.508 84.706,89.648 85.344 C 87.942 86.611,87.393 87.143,84.766 90.082 C 81.798 93.401,80.772 94.997,77.888 100.781 C 75.294 105.981,73.438 111.497,73.438 114.002 C 73.438 114.654,73.262 115.297,73.047 115.430 C 72.832 115.562,72.656 116.792,72.656 118.162 C 72.656 119.532,72.461 121.147,72.223 121.752 C 71.617 123.287,71.301 264.276,71.885 272.266 C 72.113 275.381,72.386 279.248,72.491 280.859 C 72.597 282.471,72.834 284.141,73.019 284.570 C 73.204 285.000,73.668 286.810,74.050 288.593 C 74.433 290.376,74.891 291.925,75.068 292.034 C 75.246 292.144,75.391 292.506,75.391 292.839 C 75.391 293.623,78.916 300.781,79.302 300.781 C 79.464 300.781,79.700 301.089,79.826 301.465 C 80.110 302.311,80.829 303.418,81.778 304.471 C 82.176 304.912,82.967 305.889,83.536 306.641 C 84.974 308.541,87.723 311.274,90.039 313.104 C 91.113 313.954,92.051 314.780,92.122 314.941 C 92.194 315.103,92.416 315.234,92.615 315.234 C 92.814 315.234,93.810 315.817,94.828 316.528 C 95.847 317.240,96.943 317.939,97.266 318.082 C 97.588 318.226,98.555 318.779,99.414 319.312 C 102.582 321.276,106.389 322.656,108.642 322.656 C 109.234 322.656,109.828 322.832,109.961 323.047 C 110.094 323.262,110.860 323.438,111.664 323.438 C 112.467 323.438,113.292 323.597,113.496 323.792 C 113.700 323.987,114.746 324.240,115.820 324.354 C 116.895 324.468,119.707 324.773,122.070 325.032 C 127.397 325.615,270.850 325.526,277.344 324.935 C 285.202 324.220,285.951 324.122,286.162 323.781 C 286.279 323.592,286.894 323.438,287.528 323.438 C 288.163 323.437,288.988 323.271,289.361 323.068 C 289.734 322.864,291.006 322.412,292.188 322.062 C 293.369 321.713,295.039 321.104,295.898 320.710 C 296.758 320.316,298.305 319.670,299.337 319.274 C 300.369 318.878,301.515 318.291,301.882 317.969 C 302.250 317.646,303.234 317.006,304.070 316.546 C 307.091 314.883,315.234 307.875,315.234 306.939 C 315.234 306.746,315.848 305.941,316.598 305.150 C 317.348 304.358,317.963 303.567,317.965 303.391 C 317.967 303.215,318.466 302.336,319.074 301.438 C 320.417 299.453,322.915 294.349,323.267 292.867 C 323.409 292.275,323.680 291.693,323.871 291.575 C 324.062 291.457,324.219 290.854,324.219 290.234 C 324.219 289.615,324.395 289.000,324.609 288.867 C 324.824 288.734,325.000 288.138,325.000 287.542 C 325.000 286.946,325.132 286.328,325.293 286.168 C 326.034 285.434,326.666 277.068,326.815 266.024 C 326.903 259.476,327.102 253.992,327.257 253.838 C 327.412 253.684,327.449 251.571,327.338 249.142 C 327.227 246.714,327.258 243.057,327.407 241.016 C 327.748 236.337,327.540 123.748,327.184 120.313 C 327.039 118.916,326.766 117.422,326.577 116.992 C 326.387 116.562,326.129 115.420,326.002 114.453 C 325.681 112.003,324.983 108.918,324.568 108.111 C 324.376 107.738,324.219 107.089,324.219 106.669 C 324.219 106.249,324.043 105.797,323.828 105.664 C 323.613 105.531,323.438 105.166,323.438 104.853 C 323.438 104.021,321.410 99.609,321.028 99.609 C 320.849 99.609,320.703 99.268,320.703 98.852 C 320.703 96.195,311.224 85.480,306.652 82.971 C 305.907 82.561,304.993 81.959,304.622 81.631 C 303.485 80.626,295.952 76.945,295.043 76.949 C 294.572 76.951,294.078 76.777,293.945 76.563 C 293.813 76.348,293.285 76.172,292.773 76.172 C 292.262 76.172,291.734 75.996,291.602 75.781 C 291.469 75.566,290.872 75.391,290.276 75.391 C 289.680 75.391,289.064 75.262,288.906 75.104 C 288.089 74.287,281.165 73.309,271.289 72.615 C 264.128 72.112,164.618 71.887,143.945 72.327 M252.781 97.448 C 277.701 101.809,293.268 127.153,285.545 150.787 C 282.433 160.309,274.850 172.118,264.176 184.064 C 259.010 189.846,246.317 202.344,245.612 202.344 C 244.384 202.344,229.142 186.812,222.402 178.693 C 211.144 165.132,205.053 153.202,203.895 142.446 C 201.001 115.567,225.812 92.729,252.781 97.448 M263.756 119.939 C 263.266 120.136,261.156 121.936,259.069 123.940 C 248.717 133.877,240.545 141.406,240.113 141.406 C 239.849 141.406,238.054 139.812,236.125 137.863 C 229.231 130.899,223.953 130.523,221.334 136.809 C 219.905 140.240,220.103 140.557,229.617 150.065 C 242.047 162.486,240.938 162.580,253.338 148.050 C 255.262 145.796,259.839 140.522,263.508 136.331 C 267.178 132.139,270.386 128.326,270.637 127.857 C 272.774 123.865,267.912 118.271,263.756 119.939 M128.775 139.868 C 133.060 141.497,133.935 143.396,136.700 157.067 C 139.230 169.580,148.828 218.218,148.828 218.528 C 148.828 218.633,163.026 218.770,180.380 218.832 L 211.931 218.945 214.462 220.199 C 225.481 225.658,224.456 239.689,212.773 243.303 L 210.648 243.961 212.514 253.133 C 215.961 270.071,216.672 273.443,216.833 273.595 C 216.920 273.677,219.453 273.423,222.461 273.030 C 225.469 272.636,231.094 271.930,234.961 271.461 C 238.828 270.992,242.141 270.472,242.324 270.305 C 242.506 270.138,242.026 265.633,241.257 260.293 C 237.635 235.146,233.976 210.100,233.575 207.715 L 233.132 205.078 199.502 205.078 C 158.400 205.078,161.326 205.682,161.330 197.207 C 161.333 189.361,159.259 189.844,192.937 189.844 L 220.679 189.844 230.498 199.788 C 241.330 210.758,242.012 211.252,245.720 210.813 C 249.673 210.345,254.985 206.119,265.400 195.157 L 270.448 189.844 273.994 189.845 C 279.870 189.848,281.250 191.312,281.249 197.546 C 281.248 204.665,280.494 205.078,267.487 205.078 C 261.121 205.078,257.813 205.215,257.813 205.480 C 257.812 205.829,264.698 252.076,267.378 269.727 C 269.555 284.068,269.525 284.720,266.602 286.390 C 265.123 287.234,155.348 287.874,153.778 287.048 C 152.624 286.441,152.357 285.959,152.350 284.473 C 152.340 282.431,153.291 281.843,157.448 281.320 C 159.475 281.065,167.197 280.078,174.609 279.127 C 182.021 278.177,191.074 277.029,194.727 276.576 C 198.379 276.124,201.741 275.674,202.199 275.577 L 203.031 275.399 201.952 270.219 C 201.359 267.370,200.051 260.996,199.044 256.055 C 196.476 243.442,196.758 244.288,195.018 244.001 C 192.821 243.637,146.952 243.701,146.725 244.067 C 146.497 244.436,144.854 252.086,139.830 276.172 C 137.469 287.490,137.712 287.158,131.716 287.194 C 123.258 287.243,123.307 287.580,128.326 263.855 C 134.150 236.321,133.585 239.565,132.699 238.770 C 129.572 235.964,128.079 232.223,126.581 223.438 C 125.069 214.564,119.016 178.185,118.002 171.875 C 117.571 169.189,116.748 164.092,116.174 160.547 C 114.754 151.777,114.706 146.927,116.016 144.387 C 118.149 140.250,124.170 138.117,128.775 139.868 " stroke="none" fill="#edf3f4" fill-rule="evenodd"></path><path id="path3" d="M203.641 138.281 C 203.641 139.678,203.712 140.249,203.798 139.551 C 203.885 138.853,203.885 137.710,203.798 137.012 C 203.712 136.313,203.641 136.885,203.641 138.281 M119.824 140.458 C 118.310 141.279,118.481 141.563,120.020 140.781 C 121.492 140.032,121.753 139.838,121.257 139.859 C 121.060 139.868,120.415 140.137,119.824 140.458 M133.475 144.722 C 133.832 145.471,134.194 146.015,134.279 145.930 C 134.457 145.751,133.271 143.359,133.004 143.359 C 132.906 143.359,133.117 143.972,133.475 144.722 M230.469 151.367 C 231.198 152.119,231.882 152.734,231.989 152.734 C 232.097 152.734,231.588 152.119,230.859 151.367 C 230.131 150.615,229.446 150.000,229.339 150.000 C 229.232 150.000,229.740 150.615,230.469 151.367 M220.347 189.941 C 220.438 189.995,221.126 190.566,221.877 191.211 L 223.242 192.383 222.095 191.113 C 221.464 190.415,220.775 189.844,220.565 189.844 C 220.354 189.844,220.256 189.888,220.347 189.941 M267.957 192.480 L 265.430 195.117 267.969 192.695 C 270.364 190.410,270.630 190.265,272.656 190.131 L 274.805 189.988 272.645 189.916 L 270.485 189.844 267.957 192.480 M233.984 191.602 C 234.713 192.354,235.397 192.969,235.505 192.969 C 235.612 192.969,235.104 192.354,234.375 191.602 C 233.646 190.850,232.962 190.234,232.855 190.234 C 232.747 190.234,233.256 190.850,233.984 191.602 M161.467 196.680 C 161.466 198.613,161.532 199.454,161.614 198.547 C 161.695 197.640,161.696 196.058,161.616 195.031 C 161.535 194.004,161.468 194.746,161.467 196.680 M281.002 197.461 C 281.003 199.609,281.069 200.438,281.148 199.303 C 281.227 198.168,281.226 196.410,281.146 195.397 C 281.066 194.384,281.001 195.313,281.002 197.461 M240.234 197.852 C 241.401 199.033,242.444 200.000,242.551 200.000 C 242.659 200.000,241.792 199.033,240.625 197.852 C 239.458 196.670,238.415 195.703,238.308 195.703 C 238.201 195.703,239.067 196.670,240.234 197.852 M234.392 204.004 C 237.953 207.603,241.120 210.542,241.429 210.535 C 241.793 210.527,241.716 210.373,241.211 210.098 C 240.781 209.864,237.614 206.925,234.173 203.567 L 227.917 197.461 234.392 204.004 M279.975 202.835 L 279.286 204.102 280.072 203.179 C 280.742 202.395,281.100 201.556,280.762 201.565 C 280.708 201.566,280.354 202.138,279.975 202.835 M255.057 205.371 L 253.711 206.836 255.176 205.490 C 256.539 204.237,256.820 203.906,256.522 203.906 C 256.457 203.906,255.797 204.565,255.057 205.371 M182.158 204.980 C 191.359 205.039,206.300 205.039,215.361 204.980 C 224.422 204.922,216.895 204.874,198.633 204.874 C 180.371 204.874,172.958 204.922,182.158 204.980 M257.428 205.371 C 257.432 205.851,257.525 205.911,257.740 205.573 C 257.965 205.218,260.599 205.063,267.792 204.980 L 277.539 204.869 267.480 204.778 C 258.125 204.694,257.422 204.735,257.428 205.371 M148.563 218.164 C 148.643 218.938,148.932 218.945,179.302 218.949 L 209.961 218.953 179.423 218.849 C 150.768 218.752,148.872 218.703,148.683 218.064 C 148.528 217.539,148.501 217.561,148.563 218.164 M221.987 231.445 C 221.990 232.520,222.066 232.913,222.155 232.319 C 222.245 231.725,222.243 230.846,222.150 230.366 C 222.057 229.885,221.984 230.371,221.987 231.445 M131.250 237.232 C 131.250 237.299,131.821 237.870,132.520 238.501 L 133.789 239.648 132.642 238.379 C 131.572 237.196,131.250 236.930,131.250 237.232 M195.313 244.038 C 195.850 244.138,196.418 244.421,196.576 244.668 C 196.760 244.957,196.865 244.873,196.869 244.434 C 196.874 243.911,196.576 243.763,195.605 243.803 C 194.531 243.848,194.486 243.884,195.313 244.038 M236.426 271.363 C 236.802 271.461,237.417 271.461,237.793 271.363 C 238.169 271.265,237.861 271.184,237.109 271.184 C 236.357 271.184,236.050 271.265,236.426 271.363 M230.176 272.144 C 230.552 272.243,231.167 272.243,231.543 272.144 C 231.919 272.046,231.611 271.966,230.859 271.966 C 230.107 271.966,229.800 272.046,230.176 272.144 M218.066 273.707 C 218.442 273.805,219.058 273.805,219.434 273.707 C 219.810 273.609,219.502 273.528,218.750 273.528 C 217.998 273.528,217.690 273.609,218.066 273.707 M168.848 279.957 C 169.224 280.055,169.839 280.055,170.215 279.957 C 170.591 279.859,170.283 279.778,169.531 279.778 C 168.779 279.778,168.472 279.859,168.848 279.957 M268.849 281.836 C 268.853 282.695,268.933 283.001,269.026 282.515 C 269.120 282.029,269.116 281.326,269.018 280.952 C 268.921 280.579,268.844 280.977,268.849 281.836 M152.442 284.570 C 152.447 285.430,152.527 285.735,152.620 285.249 C 152.713 284.763,152.710 284.060,152.612 283.687 C 152.514 283.313,152.438 283.711,152.442 284.570 M136.133 286.355 C 135.488 286.767,135.161 287.106,135.406 287.107 C 135.651 287.108,136.266 286.764,136.773 286.341 C 137.934 285.374,137.655 285.380,136.133 286.355 M162.624 287.402 C 167.311 287.464,174.870 287.464,179.421 287.402 C 183.972 287.339,180.137 287.288,170.898 287.288 C 161.660 287.289,157.937 287.340,162.624 287.402 M195.815 287.398 C 197.058 287.476,198.992 287.476,200.112 287.397 C 201.232 287.318,200.215 287.255,197.852 287.255 C 195.488 287.256,194.572 287.321,195.815 287.398 M262.016 287.386 C 262.502 287.479,263.205 287.476,263.579 287.378 C 263.952 287.280,263.555 287.204,262.695 287.208 C 261.836 287.212,261.530 287.292,262.016 287.386 " stroke="none" fill="#96c9e3" fill-rule="evenodd"></path><path id="path4" d="M244.043 97.161 C 244.956 97.243,246.450 97.243,247.363 97.161 C 248.276 97.079,247.529 97.011,245.703 97.011 C 243.877 97.011,243.130 97.079,244.043 97.161 M217.364 107.910 L 215.820 109.570 217.480 108.026 C 219.024 106.590,219.320 106.250,219.025 106.250 C 218.961 106.250,218.214 106.997,217.364 107.910 M275.195 109.375 C 276.471 110.664,277.602 111.719,277.710 111.719 C 277.817 111.719,276.862 110.664,275.586 109.375 C 274.310 108.086,273.179 107.031,273.071 107.031 C 272.964 107.031,273.920 108.086,275.195 109.375 M214.041 111.230 L 212.695 112.695 214.160 111.349 C 215.524 110.096,215.805 109.766,215.506 109.766 C 215.441 109.766,214.782 110.425,214.041 111.230 M211.719 114.063 C 211.260 114.707,210.972 115.234,211.080 115.234 C 211.187 115.234,211.650 114.707,212.109 114.063 C 212.568 113.418,212.856 112.891,212.749 112.891 C 212.641 112.891,212.178 113.418,211.719 114.063 M267.969 120.044 C 267.969 120.111,268.540 120.683,269.238 121.314 L 270.508 122.461 269.361 121.191 C 268.291 120.008,267.969 119.742,267.969 120.044 M258.582 124.121 L 256.055 126.758 258.691 124.230 C 260.142 122.840,261.328 121.653,261.328 121.593 C 261.328 121.306,260.930 121.672,258.582 124.121 M271.192 125.586 C 271.197 126.445,271.277 126.751,271.370 126.265 C 271.463 125.779,271.460 125.076,271.362 124.702 C 271.264 124.329,271.188 124.727,271.192 125.586 M251.942 130.371 L 249.414 133.008 252.051 130.480 C 253.501 129.090,254.688 127.903,254.688 127.843 C 254.688 127.556,254.290 127.922,251.942 130.371 M203.997 133.984 C 203.997 134.736,204.077 135.044,204.176 134.668 C 204.274 134.292,204.274 133.677,204.176 133.301 C 204.077 132.925,203.997 133.232,203.997 133.984 M222.436 134.473 L 221.289 135.742 222.559 134.595 C 223.257 133.964,223.828 133.393,223.828 133.325 C 223.828 133.024,223.506 133.289,222.436 134.473 M245.105 136.816 L 242.773 139.258 245.215 136.926 C 246.558 135.644,247.656 134.545,247.656 134.485 C 247.656 134.196,247.271 134.549,245.105 136.816 M236.133 137.891 C 237.625 139.395,238.934 140.625,239.042 140.625 C 239.149 140.625,238.016 139.395,236.523 137.891 C 235.031 136.387,233.722 135.156,233.615 135.156 C 233.507 135.156,234.640 136.387,236.133 137.891 M287.248 138.477 C 287.247 140.410,287.313 141.250,287.395 140.344 C 287.477 139.437,287.478 137.855,287.397 136.828 C 287.316 135.801,287.249 136.543,287.248 138.477 M225.195 146.094 C 227.336 148.242,229.175 150.000,229.282 150.000 C 229.390 150.000,227.726 148.242,225.586 146.094 C 223.446 143.945,221.606 142.188,221.499 142.188 C 221.392 142.188,223.055 143.945,225.195 146.094 M248.608 153.613 L 247.461 154.883 248.730 153.736 C 249.429 153.104,250.000 152.533,250.000 152.466 C 250.000 152.164,249.678 152.430,248.608 153.613 M233.594 154.419 C 233.594 154.486,234.165 155.058,234.863 155.689 L 236.133 156.836 234.986 155.566 C 233.916 154.383,233.594 154.117,233.594 154.419 M225.000 181.763 C 225.000 181.830,225.571 182.401,226.270 183.032 L 227.539 184.180 226.392 182.910 C 225.322 181.727,225.000 181.461,225.000 181.763 M263.452 184.473 L 262.305 185.742 263.574 184.595 C 264.272 183.964,264.844 183.393,264.844 183.325 C 264.844 183.024,264.521 183.289,263.452 184.473 M229.883 187.109 C 230.722 187.969,231.496 188.672,231.604 188.672 C 231.711 188.672,231.113 187.969,230.273 187.109 C 229.434 186.250,228.660 185.547,228.552 185.547 C 228.445 185.547,229.044 186.250,229.883 187.109 M258.203 190.039 C 256.603 191.650,255.381 192.969,255.488 192.969 C 255.596 192.969,256.993 191.650,258.594 190.039 C 260.194 188.428,261.416 187.109,261.309 187.109 C 261.201 187.109,259.804 188.428,258.203 190.039 M251.159 197.168 L 249.023 199.414 251.270 197.279 C 252.505 196.105,253.516 195.094,253.516 195.033 C 253.516 194.743,253.142 195.081,251.159 197.168 M243.921 201.074 C 245.278 202.576,245.723 202.639,246.717 201.465 C 247.460 200.587,247.460 200.587,246.649 201.270 C 245.577 202.172,245.370 202.142,243.967 200.879 L 242.773 199.805 243.921 201.074 " stroke="none" fill="#7ccfa2" fill-rule="evenodd"></path></g></svg>